<?xml version="1.0" encoding="utf-8"?>
<!-- Generator: Adobe Illustrator 25.4.1, SVG Export Plug-In . SVG Version: 6.00 Build 0)  -->
<svg version="1.1" id="Capa_1" xmlns="http://www.w3.org/2000/svg" xmlns:xlink="http://www.w3.org/1999/xlink" x="0px" y="0px"
	 viewBox="0 0 1000 1000" style="enable-background:new 0 0 1000 1000;" xml:space="preserve">
<style type="text/css">
	.st0{fill:url(#SVGID_1_);}
	.st1{fill:#FFFFFF;}
</style>
<g>
	<g>
		
			<linearGradient id="SVGID_1_" gradientUnits="userSpaceOnUse" x1="124.6291" y1="500" x2="875.3708" y2="500" gradientTransform="matrix(0 1 -1 0 1000 0)">
			<stop  offset="0" style="stop-color:#FFEF26"/>
			<stop  offset="5.948725e-02" style="stop-color:#FFE000"/>
			<stop  offset="0.1303" style="stop-color:#FFD300"/>
			<stop  offset="0.2032" style="stop-color:#FECB00"/>
			<stop  offset="0.2809" style="stop-color:#FDC800"/>
			<stop  offset="0.6685" style="stop-color:#F18F34"/>
			<stop  offset="0.8876" style="stop-color:#E95F32"/>
			<stop  offset="1" style="stop-color:#E3312D"/>
		</linearGradient>
		<path class="st0" d="M839.2,635.1V364.9c0-37.6-20.1-72.4-52.6-91.2L552.6,138.7c-32.6-18.8-72.7-18.8-105.3,0L213.5,273.8
			c-32.6,18.8-52.6,53.6-52.6,91.2v270.1c0,37.6,20.1,72.4,52.6,91.2l233.9,135.1c32.6,18.8,72.7,18.8,105.3,0l233.9-135.1
			C819.1,707.4,839.2,672.7,839.2,635.1z"/>
		<g>
			<path class="st1" d="M308.6,557.1c-12-5.9-21.2-14.4-27.7-25.3c-6.4-10.9-9.6-23.6-9.6-38.1c0-20.1,3.8-37.9,11.4-53.5
				c7.6-15.6,17.9-27.6,30.8-36.2c13-8.5,27.4-12.8,43.2-12.8c14.8,0,26,3.8,33.6,11.4c7.6,7.6,11.5,17.6,11.5,30
				c0,8.3-1.5,15-4.4,20.1c-2.9,5.1-7.1,7.6-12.6,7.6c-3.8,0-6.8-0.9-9-2.7c-2.2-1.8-3.3-4.4-3.3-7.8c0-1.2,0.3-3.5,0.8-6.8
				c0.8-4.1,1.2-7.4,1.2-9.8c0-12.4-6.6-18.6-19.9-18.6c-9,0-17.6,2.9-25.8,8.8c-8.2,5.9-14.8,14.5-19.9,25.9
				c-5.1,11.4-7.6,25-7.6,40.7c0,16.4,4.6,29.1,13.7,38c9.2,9,22.7,13.4,40.6,13.4c8.9,0,17.9-1.1,26.9-3.4
				c9.1-2.3,19.2-5.7,30.2-10.3c2.1-0.8,3.8-1.2,5.1-1.2c2.2,0,3.8,0.8,4.9,2.5c1.1,1.6,1.6,3.8,1.6,6.4c0,8.3-4.5,14.5-13.5,18.4
				c-9.7,4.2-19.8,7.3-30.2,9.3c-10.5,2-20.4,3-29.8,3C334.8,566,320.6,563,308.6,557.1z"/>
			<path class="st1" d="M413.5,556.8c-5.1-6.1-7.6-14.2-7.6-24.2c0-10.9,2.5-21.3,7.6-31c5.1-9.8,11.8-17.6,20.2-23.6
				c8.4-5.9,17.3-8.9,26.7-8.9c3,0,5,0.6,6,1.7c1,1.2,1.9,3.2,2.6,6.3c2.9-0.5,5.9-0.8,9-0.8c6.7,0,10,2.4,10,7.2
				c0,2.9-1,9.7-3.1,20.5c-3.1,15.7-4.7,26.6-4.7,32.8c0,2,0.5,3.7,1.5,4.9c1,1.2,2.4,1.8,4,1.8c2.6,0,5.7-1.7,9.4-5
				c3.7-3.3,8.7-8.8,15-16.3c1.6-1.9,3.5-2.9,5.5-2.9c1.8,0,3.2,0.8,4.2,2.5c1,1.6,1.5,3.9,1.5,6.8c0,5.5-1.3,9.7-3.9,12.7
				c-5.6,7-11.5,12.8-17.8,17.6c-6.3,4.8-12.4,7.2-18.2,7.2c-4.5,0-8.6-1.5-12.4-4.6c-3.8-3.1-6.6-7.3-8.5-12.6
				c-7.1,11.5-16.1,17.2-26.8,17.2C425.3,566,418.6,562.9,413.5,556.8z M449.8,540c2.7-3.6,4.7-8.3,5.9-14.1l7.6-37.7
				c-5.7,0.1-11,2.3-15.9,6.5c-4.9,4.2-8.7,9.7-11.6,16.5c-2.9,6.8-4.3,14.1-4.3,21.7c0,4.2,0.9,7.4,2.6,9.4c1.7,2,4.1,3.1,7.1,3.1
				C444.2,545.3,447.1,543.5,449.8,540z"/>
			<path class="st1" d="M508.5,557.8c-2.1-5.5-3.2-14.2-3.2-26.2c0-17.8,2.5-34.6,7.6-50.6c1.2-4,3.2-6.9,6-8.7
				c2.8-1.8,6.7-2.8,11.8-2.8c2.7,0,4.6,0.3,5.7,1c1.1,0.7,1.6,2,1.6,3.9c0,2.2-1,7.1-3.1,14.8c-1.4,5.5-2.5,10.2-3.3,14.2
				c-0.8,4-1.5,9.1-2,15.1c3.7-10.7,8.1-19.7,13.2-27.1c5.1-7.4,10.4-12.9,15.8-16.5c5.4-3.6,10.5-5.4,15.3-5.4
				c4.8,0,8.2,1.1,10.1,3.3c2,2.2,3,5.5,3,10c0,4.4-1.3,12.3-3.9,23.8c-1.1,4.9-1.8,8.6-2.3,11.1c6.8-16.8,14.4-29,22.7-36.7
				c8.3-7.6,16.1-11.5,23.4-11.5c8.9,0,13.3,4.4,13.3,13.3c0,5.3-1.5,15-4.5,28.9c-2.6,11.9-3.9,19.7-3.9,23.6c0,5.5,2,8.2,5.9,8.2
				c2.7,0,6-1.7,9.7-5c3.8-3.3,8.8-8.8,15.1-16.3c1.6-1.9,3.5-2.9,5.5-2.9c1.8,0,3.2,0.8,4.2,2.5c1,1.6,1.5,3.9,1.5,6.8
				c0,5.5-1.3,9.7-3.9,12.7c-5.9,7.2-12.2,13.2-19,17.8c-6.8,4.6-14.4,7-23.1,7c-7,0-12.2-2-15.8-6c-3.6-4-5.3-9.9-5.3-17.5
				c0-3.8,1-10.7,2.9-20.5c1.8-8.6,2.7-14.6,2.7-17.8c0-2.2-0.8-3.3-2.3-3.3c-1.8,0-4.3,2.3-7.6,6.9c-3.3,4.6-6.6,10.6-9.8,18.1
				c-3.3,7.5-5.9,15.4-8,23.8c-1.5,6.6-3.2,10.9-5.2,13.1c-2,2.2-5.2,3.3-9.5,3.3c-4.5,0-7.9-2.2-10.1-6.5
				c-2.3-4.3-3.4-9.5-3.4-15.7c0-5.2,0.7-12.7,2-22.5c1.1-8.7,1.6-14.5,1.6-17.2c0-2.2-0.8-3.3-2.3-3.3c-2,0-4.6,2.5-7.8,7.4
				c-3.1,4.9-6.2,11.2-9.1,18.9c-2.9,7.7-5.3,15.2-7.1,22.5c-1.5,6.4-3.2,10.8-5.2,13c-2,2.3-5.1,3.4-9.3,3.4
				C514.3,566,510.6,563.3,508.5,557.8z"/>
			<path class="st1" d="M663.2,558.1c-3.9-5.3-5.8-12.5-5.8-21.8c0-10.2,0.7-19.6,2-28.2c1.4-8.5,3.6-17.6,6.8-27.2
				c1.4-4.1,3.3-7,5.7-8.8c2.5-1.8,6.4-2.7,11.7-2.7c3,0,5.1,0.5,6.2,1.4c1.2,1,1.7,2.4,1.7,4.3c0,1.1-0.8,4.8-2.3,11.1
				c-1.4,5.1-2.5,9.6-3.3,13.7c-2.7,14.3-4.1,23.9-4.1,28.7c0,2.9,0.3,4.9,1,6c0.7,1.2,1.8,1.7,3.3,1.7c2,0,4.6-2.1,7.8-6.3
				c3.1-4.2,6.5-10.5,9.9-18.9c3.5-8.4,6.8-18.5,9.9-30.4c1.1-4.1,2.8-7,5-8.8c2.3-1.8,5.6-2.7,10.1-2.7c3,0,5.2,0.8,6.5,2.4
				c1.3,1.6,1.9,3.9,1.9,7.1c0,3.4-0.3,7.2-0.8,11.4c-0.5,4.2-1.2,8.4-1.8,12.8c-1.4,8.7-2.5,16.7-3.3,23.9
				c-0.8,7.2-1.2,15.3-1.2,24.5c0,5.2-1.1,8.9-3.2,11.2c-2.1,2.3-5.6,3.4-10.3,3.4c-5.1,0-8.6-1.3-10.6-4c-2-2.7-3-7.8-3-15.5
				c0-1.5,0.1-4.8,0.4-10c-2.3,9.6-5.8,16.9-10.3,21.9c-4.6,5.1-9.5,7.6-14.7,7.6C672.3,566,667.1,563.4,663.2,558.1z"/>
		</g>
	</g>
	<g>
		<path class="st1" d="M502.8,703.6c-1.6-1.9-3-3.8-4.6-5.6c-1.5-1.8-3.4-2.3-5.8-1.7c-3.3,0.8-6.5,0.1-9.6-1.4
			c-3-1.5-5.4-3.8-7.7-6.3c-5.1-5.6-9.5-11.7-13.8-17.9c-1.2-1.7-2.3-3.5-3.5-5.2c-0.3-0.4-0.5-0.8-0.6-1.3
			c-0.2-0.6-0.1-1.1,0.4-1.5c0.5-0.4,1.1-0.4,1.6-0.1c0.4,0.2,0.7,0.5,1,0.8c5,6.1,10,12.2,15,18.3c0.6,0.7,1.2,1.3,1.7,2
			c0.2,0.2,0.4,0.4,0.7,0.6c0.5,0.3,1,0.7,1.5,0.3c0.6-0.4,0.5-1.1,0.3-1.6c-0.3-0.8-0.7-1.6-1.3-2.3c-5.3-6.6-10.7-13.1-16.1-19.7
			c-0.7-0.9-0.8-1.7,0-2.3c0.8-0.7,1.7-0.6,2.5,0.2c5.9,6.3,11.9,12.6,17.8,18.9c0.4,0.5,0.9,0.9,1.4,1.3c0.5,0.4,1.1,0.3,1.6-0.1
			c0.5-0.5,0.6-1.1,0.3-1.6c-0.5-0.7-1-1.3-1.5-1.9c-5.6-6.4-11.1-12.8-16.7-19.2c-0.3-0.3-0.5-0.9-0.6-1.3c0-0.7,0.4-1.2,1-1.5
			c0.6-0.3,1.2-0.1,1.7,0.4c2.6,2.6,5.2,5.2,7.8,7.8c3.5,3.5,7,7.1,10.6,10.6c0.6,0.6,1.5,1,2.3,1.4c0.3,0.1,1,0,1.2-0.3
			c0.2-0.2,0.2-0.9,0-1.2c-0.6-0.9-1.2-1.8-1.9-2.5c-5.7-5.7-11.5-11.4-17.2-17.1c-0.4-0.4-0.8-1-0.9-1.6c-0.2-1,0.6-1.7,1.5-1.5
			c0.5,0.1,1,0.3,1.3,0.6c7.1,5.8,14.2,11.7,20.5,18.4c2.1,2.3,4.3,4.7,5.7,7.5c1.7,3.4,2.5,6.9,1.6,10.7c-0.1,0.4-0.2,0.8-0.4,1.2
			c-0.7,2-0.4,3.8,1,5.3c1.1,1.3,2.4,2.4,3.5,3.6c0.5,0.5,1,1.1,1.6,1.7c2.1-2.1,4.4-4,5.7-6.6c0.5-1.1,0.5-2.1-0.1-3.2
			c-1.4-2.5-2.4-5.2-2.2-8.2c0.1-2.3,0.9-4.5,1.8-6.6c1.7-4,4.3-7.4,7.6-10.1c3.8-3.1,7.8-5.9,12.1-8.1c3.2-1.6,6.6-2.5,10.2-2.4
			c2.7,0.1,5.2,0.9,7.4,2.6c2,1.6,3.1,3.8,3.7,6.2c0.9,3.7,0.5,7.3-0.7,10.9c-1.5,4.5-4,8.6-6.5,12.7c-1.6,2.6-3.5,4.9-5.8,6.8
			c-2.3,2-4.9,3.5-7.8,4.6c-3.4,1.4-6.8,1.2-10.2-0.2c-0.4-0.1-0.8-0.3-1.1-0.4c-1.1-0.6-2.1-0.4-3.1,0.2c-0.3,0.2-0.6,0.4-0.9,0.6
			c-2.1,1.6-3.6,3.8-5.2,5.7c1.4,1.4,2.7,2.9,4.1,4.3c6.6,6.6,13.3,13.1,20,19.7c4.8,4.7,9.6,9.4,14.3,14.1c1.6,1.6,3.1,3.3,3.4,5.6
			c0.1,0.9,0.1,1.8-0.1,2.7c-0.1,0.5-0.5,1.1-0.9,1.4c-1,1-2.2,1.9-3.2,2.9c-1.1,1.2-2.4,1.3-3.8,1c-2-0.3-3.6-1.4-4.9-2.9
			c-2.3-2.7-4.5-5.4-6.7-8.1c-9.1-11.2-18.2-22.4-27.3-33.6c-0.1-0.1-0.2-0.3-0.4-0.4c-0.8,1-1.6,2-2.4,3
			c-10.2,12.6-20.4,25.2-30.5,37.8c-1.1,1.4-2.3,2.7-3.9,3.6c-2.2,1.3-4.3,1.1-6.2-0.6c-0.7-0.7-1.5-1.3-2.2-2
			c-1.5-1.4-2-3.2-1.3-5.1c0.6-1.9,1.9-3.3,3.3-4.7c4.3-4.3,8.7-8.5,13-12.8c7.6-7.5,15.3-15,22.9-22.5
			C501,705.3,501.9,704.5,502.8,703.6z"/>
	</g>
</g>
</svg>
